<svg width="43px" height="50px" viewBox="0 0 43 50" version="1.1" xmlns="http://www.w3.org/2000/svg" xmlns:xlink="http://www.w3.org/1999/xlink">
    <!-- Generator: Sketch 63.1 (92452) - https://sketch.com -->
    <title>discord</title>
    <desc>Created with Sketch.</desc>
    <g id="Page-1" stroke="none" stroke-width="1" fill="none" fill-rule="evenodd">
        <g id="Homepage-Desktop-(Full)" transform="translate(-1483.000000, -31.000000)" fill="#FFFFFF" fill-rule="nonzero">
            <g id="Topfold" transform="translate(399.000000, 9.000000)">
                <g id="discord" transform="translate(1084.000000, 22.000000)">
                    <path d="M28.6666667,23.9130435 C28.6666667,25.5059407 27.560049,26.8115942 26.1583333,26.8115942 C24.7812092,26.8115942 23.65,25.5059407 23.65,23.9130435 C23.65,22.3201462 24.7566176,21.0144928 26.1583333,21.0144928 C27.560049,21.0144928 28.6666667,22.3201462 28.6666667,23.9130435 Z M16.8414699,21.0144928 C15.4398642,21.0144928 14.3333333,22.3201462 14.3333333,23.9130435 C14.3333333,25.5059407 15.4644538,26.8115942 16.8414699,26.8115942 C18.2430757,26.8115942 19.3496065,25.5059407 19.3496065,23.9130435 C19.3741961,22.3201462 18.2430757,21.0144928 16.8414699,21.0144928 Z M43,5.15 L43,50 C36.8097277,44.4341797 38.7894554,46.2765625 31.5988571,39.475 L32.9011429,44.1 L5.03714286,44.1 C2.26057143,44.1 0,41.8 0,38.95 L0,5.15 C0,2.3 2.26057143,0 5.03714286,0 L37.9628571,0 C40.7394286,0 43,2.3 43,5.15 Z M35.8333333,28.8061108 C35.8333333,20.7506349 32.2990868,14.2211964 32.2990868,14.2211964 C28.7648402,11.5193598 25.4023973,11.5942029 25.4023973,11.5942029 L25.05879,11.9946829 C29.2311644,13.2955672 31.1700913,15.1718426 31.1700913,15.1718426 C25.3399842,11.9148435 18.4915186,11.9142571 12.8361872,14.4463495 C11.9280822,14.8716386 11.3881279,15.1718426 11.3881279,15.1718426 C11.3881279,15.1718426 13.4252283,13.1954992 17.8430365,11.8946149 L17.5976027,11.5942029 C17.5976027,11.5942029 14.2351598,11.5193598 10.7009132,14.2211964 C10.7009132,14.2211964 7.16666667,20.7506349 7.16666667,28.8061108 C7.16666667,28.8061108 9.2283105,32.4335766 14.6523973,32.6086957 C14.6523973,32.6086957 15.5605023,31.4829304 16.2968037,30.5322842 C13.1797945,29.581638 12.0017123,27.5802775 12.0017123,27.5802775 C12.3627684,27.8378745 12.9581371,28.1717929 13.0079909,28.2057026 C17.1506448,30.570396 23.0351117,31.3451414 28.3230594,29.0812978 C29.1820776,28.7560768 30.1392694,28.2807537 31.1455479,27.6052945 C31.1455479,27.6052945 29.918379,29.656689 26.7031963,30.5823182 C27.4394977,31.5329644 28.3230594,32.6086957 28.3230594,32.6086957 C33.7471461,32.4335766 35.8333333,28.8061108 35.8333333,28.8061108 L35.8333333,28.8061108 Z" id="Shape"></path>
                </g>
            </g>
        </g>
    </g>
</svg>
